<?xml version="1.0" standalone="no"?>
<!DOCTYPE svg PUBLIC "-//W3C//DTD SVG 20010904//EN"
 "http://www.w3.org/TR/2001/REC-SVG-20010904/DTD/svg10.dtd">
<svg version="1.0" xmlns="http://www.w3.org/2000/svg"
 width="512.000000pt" height="512.000000pt" viewBox="0 0 512.000000 512.000000"
 preserveAspectRatio="xMidYMid meet">

<g transform="translate(0.000000,512.000000) scale(0.100000,-0.100000)"
fill="#000000" stroke="none">
<path d="M865 5113 c-409 -57 -725 -338 -837 -743 l-23 -85 0 -1130 0 -1130
22 -88 c93 -363 360 -632 725 -729 82 -22 97 -22 854 -25 l770 -4 12 -71 c26
-153 111 -354 211 -501 202 -297 509 -503 864 -579 135 -29 398 -31 530 -5
564 113 991 540 1104 1104 26 134 24 396 -5 530 -87 402 -337 738 -692 933
l-65 35 -5 840 c-5 827 -6 841 -27 918 -48 170 -138 323 -262 448 -125 125
-270 208 -459 262 l-77 22 -1305 1 c-718 1 -1318 -1 -1335 -3z m2606 -407
c209 -45 390 -221 444 -431 8 -32 15 -76 15 -97 l0 -38 -1765 0 -1765 0 0 28
c0 51 39 182 72 245 42 80 155 193 235 235 34 18 95 41 135 52 70 18 125 19
1318 19 1031 1 1256 -2 1311 -13z m459 -1458 l0 -493 -177 0 c-131 0 -201 -5
-266 -18 -432 -88 -784 -354 -981 -744 -54 -107 -101 -242 -118 -341 l-12 -72
-726 0 c-691 0 -731 1 -804 20 -110 28 -190 74 -271 155 -81 81 -127 161 -155
271 -19 74 -20 113 -20 896 l0 818 1765 0 1765 0 0 -492z m-29 -903 c359 -63
649 -309 766 -650 176 -518 -110 -1083 -632 -1248 -347 -109 -714 -21 -975
233 -122 119 -195 232 -247 385 -99 290 -55 611 118 867 212 312 601 478 970
413z"/>
<path d="M926 3336 c-57 -21 -87 -47 -113 -96 -43 -80 -27 -175 38 -237 50
-47 76 -53 235 -53 166 0 191 7 246 68 83 92 55 246 -55 304 -36 20 -60 23
-177 25 -99 2 -145 -1 -174 -11z"/>
<path d="M2009 3336 c-57 -20 -96 -53 -118 -99 -49 -101 -9 -217 92 -269 35
-17 56 -19 196 -16 154 3 159 4 198 31 56 39 83 91 83 161 0 98 -54 170 -145
195 -55 15 -261 13 -306 -3z"/>
<path d="M3086 3335 c-106 -37 -163 -162 -121 -263 20 -47 50 -79 97 -103 32
-16 59 -19 186 -19 136 0 153 2 193 23 118 63 140 216 45 312 -29 28 -57 45
-88 53 -65 16 -263 15 -312 -3z"/>
<path d="M910 2544 c-162 -70 -160 -301 2 -369 53 -21 293 -21 346 0 76 32
122 102 122 185 0 83 -46 153 -122 185 -52 21 -298 21 -348 -1z"/>
<path d="M2000 2549 c-151 -61 -175 -261 -42 -354 43 -30 45 -30 195 -33 142
-3 155 -1 196 20 25 13 59 40 75 61 29 36 31 45 31 117 0 72 -2 81 -31 117
-16 21 -50 48 -74 61 -40 20 -58 22 -185 21 -77 0 -151 -5 -165 -10z"/>
<path d="M3655 1953 c-46 -24 -76 -54 -96 -98 -16 -35 -19 -68 -19 -270 0
-136 5 -246 11 -269 8 -30 40 -70 133 -164 155 -159 205 -185 302 -161 65 17
126 78 143 143 22 89 -4 148 -113 256 l-76 74 0 174 c0 184 -7 221 -53 270
-55 59 -166 80 -232 45z"/>
</g>
</svg>
